<?xml version="1.0" encoding="UTF-8"?>
<!DOCTYPE svg PUBLIC "-//W3C//DTD SVG 1.1//EN" "http://www.w3.org/Graphics/SVG/1.1/DTD/svg11.dtd">
<!-- Creator: CorelDRAW 2017 -->
<svg xmlns="http://www.w3.org/2000/svg" xml:space="preserve" width="275px" height="285px" version="1.1" style="shape-rendering:geometricPrecision; text-rendering:geometricPrecision; image-rendering:optimizeQuality; fill-rule:evenodd; clip-rule:evenodd"
viewBox="0 0 275 285"
 xmlns:xlink="http://www.w3.org/1999/xlink">
 <defs>
  <style type="text/css">
   <![CDATA[
    .fil0 {fill:#747474}
   ]]>
  </style>
 </defs>
 <g id="Слой_x0020_1">
  <metadata id="CorelCorpID_0Corel-Layer"/>
  <path class="fil0" d="M156 28c7,0 29,-9 43,-9 12,0 19,0 30,6 5,3 12,7 16,12 4,5 7,8 11,17 1,3 3,7 3,11 5,22 -3,41 -19,57 -4,4 -3,3 -3,8l-1 12c0,7 -3,30 -3,37 -4,28 -9,52 -20,77 -3,6 -13,23 -19,16 -1,-1 -1,-2 -2,-3 -3,-6 -6,-16 -8,-23 -6,-25 -14,-76 -46,-76 -39,0 -40,73 -53,99 -1,1 -1,2 -2,3 -7,10 -21,-21 -23,-25 -4,-11 -7,-23 -11,-35 -4,-15 -9,-54 -9,-71 0,-4 0,-8 0,-12 -1,-9 -2,-4 -9,-13 -16,-20 -19,-47 -4,-69 2,-2 3,-4 5,-6l3 -3c8,-8 22,-16 36,-16 27,0 30,4 55,10 14,3 22,2 35,3 -2,-1 -5,-3 -6,-4zm-84 -21l11 0c9,1 19,3 28,6 24,8 34,7 59,0 10,-3 20,-5 29,-6l9 0c9,1 17,3 26,7 33,17 48,58 32,91 -2,4 -4,8 -7,11 -2,3 -5,7 -8,9 -4,4 -3,8 -3,15 0,7 -2,25 -3,32 -3,25 -8,48 -16,72 -4,12 -16,40 -30,40l0 0 -2 0c-3,0 -6,0 -9,-3 -9,-8 -12,-23 -15,-35 -5,-20 -13,-66 -34,-66 -28,0 -30,74 -45,96 -5,7 -8,8 -15,8 -8,0 -16,-10 -20,-16 -9,-14 -15,-34 -19,-51 -5,-18 -11,-58 -11,-77 0,-3 0,-6 0,-8 -1,-4 0,-3 -3,-6 -6,-6 -11,-13 -15,-21 -3,-7 -6,-19 -6,-29 0,-18 8,-36 20,-48 14,-14 29,-20 46,-21z"/>
  <path class="fil0" d="M155 33c7,0 28,-9 41,-9 11,0 18,0 29,6 5,3 12,7 15,11 4,5 7,7 11,16 1,3 2,6 3,10 5,21 -3,39 -18,54 -4,4 -2,3 -3,8l0 11c0,7 -2,29 -3,36 -4,27 -9,50 -19,73 -3,6 -12,22 -18,15 -1,-1 -1,-2 -2,-3 -3,-6 -6,-16 -7,-22 -6,-24 -14,-73 -44,-73 -37,0 -39,70 -51,95 -1,1 -1,2 -2,3 -7,10 -20,-20 -22,-24 -4,-11 -7,-22 -10,-34 -4,-15 -9,-52 -9,-68 0,-4 0,-8 0,-11 -1,-8 -2,-4 -9,-13 -16,-19 -18,-45 -4,-66 2,-2 3,-4 5,-6l3 -3c8,-8 21,-16 35,-16 26,0 29,4 52,10 17,4 40,15 52,28 -3,-12 -11,-20 -18,-25 -2,-1 -5,-3 -6,-4zm-81 -20l11 0c9,1 18,3 27,6 23,8 33,7 56,0 10,-3 19,-5 28,-5l9 0c8,1 16,3 25,7 32,16 46,56 31,87 -2,4 -4,7 -6,11 -2,3 -5,6 -8,9 -4,4 -3,7 -3,14 0,7 -2,24 -3,31 -3,24 -8,46 -16,68 -4,11 -15,38 -29,38l0 0 -2 0c-3,0 -6,0 -9,-3 -8,-8 -11,-22 -14,-33 -5,-19 -12,-63 -33,-63 -27,0 -29,71 -43,92 -4,7 -8,8 -14,8 -8,0 -16,-10 -19,-15 -9,-14 -14,-33 -18,-49 -4,-17 -11,-56 -10,-74 0,-3 0,-6 0,-8 -1,-4 0,-3 -3,-6 -6,-6 -10,-12 -14,-20 -3,-6 -6,-18 -6,-27 0,-17 8,-35 19,-46 13,-13 28,-19 44,-20z"/>
 </g>
</svg>
