<?xml version="1.0" encoding="UTF-8"?>
<!DOCTYPE svg PUBLIC "-//W3C//DTD SVG 1.1//EN" "http://www.w3.org/Graphics/SVG/1.1/DTD/svg11.dtd">
<!-- Creator: CorelDRAW 2017 -->
<svg xmlns="http://www.w3.org/2000/svg" xml:space="preserve" width="190px" height="285px" version="1.1" style="shape-rendering:geometricPrecision; text-rendering:geometricPrecision; image-rendering:optimizeQuality; fill-rule:evenodd; clip-rule:evenodd"
viewBox="0 0 190 285"
 xmlns:xlink="http://www.w3.org/1999/xlink">
 <defs>
  <style type="text/css">
   <![CDATA[
    .fil0 {fill:#757575}
   ]]>
  </style>
 </defs>
 <g id="Слой_x0020_1">
  <metadata id="CorelCorpID_0Corel-Layer"/>
  <g id="_478862256">
   <path class="fil0" d="M111 283c19,-2 49,-34 58,-57 6,-16 8,-29 5,-49 -1,-7 -4,-15 -8,-21 -10,-19 -27,-32 -46,-41 -13,-7 -28,-10 -42,-16 -15,-6 -27,-11 -38,-20 -3,-2 -5,-4 -8,-6 -10,-8 -17,-23 -20,-24 1,17 16,38 26,51 12,16 35,29 54,37 15,6 28,15 39,26 25,26 29,63 6,95 -9,12 -20,19 -28,25z"/>
   <path class="fil0" d="M104 102c0,-12 -7,-29 -13,-39 -2,-3 -6,-8 -7,-11 5,3 12,13 16,18l9 16c1,1 1,2 1,3l1 1c1,2 0,1 1,2 5,-44 -13,-66 -53,-82 -5,-2 -8,-4 -14,-5 0,2 5,20 6,33 3,29 8,45 39,59 4,2 10,4 14,6z"/>
   <path class="fil0" d="M119 93c5,-3 8,-9 13,-13 4,-3 11,-9 16,-10 -1,1 -24,21 -25,33 39,-3 44,-14 55,-40 2,-4 3,-7 5,-11 2,-4 4,-7 6,-11 -8,1 -18,3 -26,4 -17,3 -28,9 -37,25 -3,5 -8,16 -8,23z"/>
   <path class="fil0" d="M134 229c-2,-6 -24,-24 -52,-8 -4,2 -6,4 -11,7 -31,14 -26,1 -30,-14 -4,0 -5,-1 -9,-2 0,-4 0,-5 4,-5l0 -2c-7,0 -6,-2 -10,-4 2,-6 3,-2 3,-11 -3,-2 -4,-3 -8,-4 -3,-1 -6,-2 -9,-3 0,-5 2,-7 5,-10 9,-15 13,-21 7,-34 -2,-5 -11,-20 -14,-51 -2,10 -6,25 5,48 7,15 6,14 0,26 -2,4 -5,9 -8,12 -2,3 -3,5 -3,7l0 1c0,6 9,10 18,10 -1,2 -3,5 -3,9 0,3 3,5 6,6 0,12 1,9 9,13 4,4 -2,36 44,10 25,-14 30,-14 54,-1z"/>
   <path class="fil0" d="M34 153l0 0zm0 0c0,0 1,0 1,0l3 0c0,0 1,0 1,0 9,-2 3,1 9,-3 2,-1 4,-1 5,-3 1,-1 2,-6 3,-8 -7,2 -3,10 -19,6 -1,5 -4,5 -6,8l3 0z"/>
   <polygon class="fil0" points="135,230 134,229 "/>
   <polygon class="fil0" points="136,231 135,230 "/>
   <polygon class="fil0" points="111,283 108,283 "/>
  </g>
 </g>
</svg>
