<?xml version="1.0" encoding="UTF-8"?>
<!DOCTYPE svg PUBLIC "-//W3C//DTD SVG 1.1//EN" "http://www.w3.org/Graphics/SVG/1.1/DTD/svg11.dtd">
<!-- Creator: CorelDRAW 2017 -->
<svg xmlns="http://www.w3.org/2000/svg" xml:space="preserve" width="720px" height="450px" version="1.1" style="shape-rendering:geometricPrecision; text-rendering:geometricPrecision; image-rendering:optimizeQuality; fill-rule:evenodd; clip-rule:evenodd"
viewBox="0 0 720 450"
 xmlns:xlink="http://www.w3.org/1999/xlink">
 <defs>
  <style type="text/css">
   <![CDATA[
    .str0 {stroke:#00B7FA;stroke-width:4}
    .fil0 {fill:none}
   ]]>
  </style>
 </defs>
 <g id="Слой_x0020_1">
  <metadata id="CorelCorpID_0Corel-Layer"/>
  <g id="_753604704">
   <path class="fil0 str0" d="M732 320c-47,55 -100,102 -170,130m-272 0c-143,-58 -199,-209 -293,-321"/>
   <path class="fil0 str0" d="M732 271c-56,74 -119,143 -210,179m-272 0c-123,-50 -181,-167 -254,-270"/>
   <path class="fil0 str0" d="M732 218c-67,92 -136,188 -249,232m-272 0c-100,-41 -157,-126 -215,-212"/>
   <path class="fil0 str0" d="M732 165c-81,106 -153,233 -288,285m-272 0c-77,-31 -129,-90 -175,-155"/>
   <path class="fil0 str0" d="M732 116c-99,113 -171,273 -327,334m-272 0c-56,-23 -99,-60 -136,-104"/>
   <path class="fil0 str0" d="M732 71c-124,110 -193,310 -372,379m-272 0c-35,-14 -65,-34 -92,-58"/>
   <path class="fil0 str0" d="M732 38c-154,97 -218,335 -416,412m-272 0c-17,-7 -33,-15 -47,-24"/>
   <path class="fil0 str0" d="M732 15c-188,75 -244,351 -460,435m-272 0c-1,0 -2,-1 -3,-1"/>
   <path class="fil0 str0" d="M732 116c-99,113 -171,273 -327,334m-272 0c-56,-23 -99,-60 -136,-104"/>
   <path class="fil0 str0" d="M732 2c-225,46 -272,358 -505,448"/>
   <path class="fil0 str0" d="M-4 405c58,-119 122,-238 250,-238 144,1 193,150 254,282"/>
   <path class="fil0 str0" d="M1 450c65,-132 128,-283 272,-282 144,1 193,150 254,282"/>
   <path class="fil0 str0" d="M27 450c65,-132 128,-283 272,-282 144,1 193,150 254,282"/>
   <path class="fil0 str0" d="M53 450c65,-132 128,-283 272,-282 144,1 193,150 254,282"/>
   <path class="fil0 str0" d="M79 450c65,-132 128,-283 272,-282 144,1 193,150 254,282"/>
   <path class="fil0 str0" d="M109 450c65,-132 128,-283 272,-282 144,1 193,150 254,282"/>
   <path class="fil0 str0" d="M139 450c65,-132 128,-283 272,-282 144,1 193,150 254,282"/>
   <path class="fil0 str0" d="M168 450c65,-132 128,-283 272,-282 144,1 193,150 254,282"/>
   <path class="fil0 str0" d="M79 450c65,-132 128,-283 272,-282 144,1 193,150 254,282"/>
   <path class="fil0 str0" d="M198 450c65,-132 128,-283 272,-282 144,1 193,150 254,282"/>
  </g>
 </g>
</svg>
